# xmcd
#
# Track frame offsets:
#	150
#	12457
#	22252
#	32834
#	50843
#	75964
#	94005
#	106846
#	120515
#	133957
#	154314
#	174922
#	193081
#	221394
#
# Disc length: 3860 seconds
#
# Revision: 0
# Processed by: cddbd v1.5.2PL0 Copyright (c) Steve Scherf et al.
# Submitted via: AudioConverter v7.0 Copyright (c) D.R. Software
#
DISCID=ba0f120e
DTITLE=RICK STEFFEN - LOVE and ESCAPE
DYEAR=1996
DGENRE=Country
TTITLE0=BEGGAR'S HOLIDAY
TTITLE1=ONE MORE CHANCE
TTITLE2=ISLAND IN THE SUN
TTITLE3=WHEN GOOD TIMES COME AROUND
TTITLE4=OFFSHORE
TTITLE5=GIVE TIL IT HURTS
TTITLE6=SHE'LL ALWAYS BE SOMEBODY'S BABY
TTITLE7=I WISH YOU HAD ME HERE TONIGHT
TTITLE8=IT ONLY HURTS TIL THE NEXT TIME
TTITLE9=MISSIN' YOU THIS MORNIN
TTITLE10=SO MUCH IN LOVE
TTITLE11=IF YOU CAN'T SAY SOMETHING NICE
TTITLE12=BURNED OUT BROKE and DISGUSTED
TTITLE13=
EXTD=
EXTT0=BEGGAR'S HOLIDAY
EXTT1=ONE MORE CHANCE
EXTT2=ISLAND IN THE SUN
EXTT3=WHEN GOOD TIMES COME AROUND
EXTT4=OFFSHORE
EXTT5=GIVE TIL IT HURTS
EXTT6=SHE'LL ALWAYS BE SOMEBODY'S BABY
EXTT7=I WISH YOU HAD ME HERE TONIGHT
EXTT8=IT ONLY HURTS TIL THE NEXT TIME
EXTT9=MISSIN' YOU THIS MORNIN
EXTT10=SO MUCH IN LOVE
EXTT11=IF YOU CAN'T SAY SOMETHING NICE
EXTT12=BURNED OUT BROKE and DISGUSTED
EXTT13=
PLAYORDER=
